ISO-10303-21;
HEADER;
/* Generated by software containing ST-Developer
 * from STEP Tools, Inc. (www.steptools.com) 
 */

FILE_DESCRIPTION(
/* description */ (''),
/* implementation_level */ '2;1');

FILE_NAME(
/* name */ 'new_casing_electrodes_v1_09-26.step',
/* time_stamp */ '2026-09-27T15:22:50+02:00',
/* author */ (''),
/* organization */ (''),
/* preprocessor_version */ 'ST-DEVELOPER v20.2',
/* originating_system */ 'Autodesk Translation Framework v15.15.0.0',
/* authorisation */ '');

FILE_SCHEMA (('AUTOMOTIVE_DESIGN { 1 0 10303 214 3 1 1 }'));
ENDSEC;

DATA;
#10=MECHANICAL_DESIGN_GEOMETRIC_PRESENTATION_REPRESENTATION('',(#13,#14),
#942);
#11=SHAPE_REPRESENTATION_RELATIONSHIP('SRR','None',#949,#12);
#12=ADVANCED_BREP_SHAPE_REPRESENTATION('',(#15,#16),#941);
#13=STYLED_ITEM('',(#958),#15);
#14=STYLED_ITEM('',(#958),#16);
#15=MANIFOLD_SOLID_BREP('Cuerpo1',#419);
#16=MANIFOLD_SOLID_BREP('Cuerpo2',#420);
#17=FACE_BOUND('',#158,.T.);
#18=FACE_BOUND('',#171,.T.);
#19=CIRCLE('',#436,10.8000000000019);
#20=CIRCLE('',#440,8.8);
#21=CIRCLE('',#441,8.8);
#22=CIRCLE('',#444,8.80000000000194);
#23=CIRCLE('',#445,8.80000000000194);
#24=CIRCLE('',#448,10.8);
#25=CIRCLE('',#452,10.8);
#26=CIRCLE('',#453,10.8);
#27=CIRCLE('',#455,10.8);
#28=CIRCLE('',#456,10.8);
#29=CYLINDRICAL_SURFACE('',#435,10.8000000000019);
#30=CYLINDRICAL_SURFACE('',#439,8.8);
#31=CYLINDRICAL_SURFACE('',#443,8.80000000000194);
#32=CYLINDRICAL_SURFACE('',#449,10.8);
#33=CYLINDRICAL_SURFACE('',#451,10.8);
#34=CYLINDRICAL_SURFACE('',#454,10.8);
#35=LINE('',#847,#69);
#36=LINE('',#849,#70);
#37=LINE('',#850,#71);
#38=LINE('',#853,#72);
#39=LINE('',#859,#73);
#40=LINE('',#861,#74);
#41=LINE('',#863,#75);
#42=LINE('',#864,#76);
#43=LINE('',#869,#77);
#44=LINE('',#873,#78);
#45=LINE('',#875,#79);
#46=LINE('',#876,#80);
#47=LINE('',#883,#81);
#48=LINE('',#886,#82);
#49=LINE('',#893,#83);
#50=LINE('',#896,#84);
#51=LINE('',#902,#85);
#52=LINE('',#905,#86);
#53=LINE('',#909,#87);
#54=LINE('',#911,#88);
#55=LINE('',#913,#89);
#56=LINE('',#914,#90);
#57=LINE('',#917,#91);
#58=LINE('',#919,#92);
#59=LINE('',#920,#93);
#60=LINE('',#923,#94);
#61=LINE('',#925,#95);
#62=LINE('',#926,#96);
#63=LINE('',#928,#97);
#64=LINE('',#929,#98);
#65=LINE('',#932,#99);
#66=LINE('',#933,#100);
#67=LINE('',#935,#101);
#68=LINE('',#936,#102);
#69=VECTOR('',#470,10.);
#70=VECTOR('',#471,10.);
#71=VECTOR('',#472,10.);
#72=VECTOR('',#475,10.);
#73=VECTOR('',#482,10.);
#74=VECTOR('',#483,10.);
#75=VECTOR('',#484,10.);
#76=VECTOR('',#485,10.);
#77=VECTOR('',#490,10.);
#78=VECTOR('',#495,10.);
#79=VECTOR('',#496,10.);
#80=VECTOR('',#497,10.);
#81=VECTOR('',#508,10.);
#82=VECTOR('',#513,10.);
#83=VECTOR('',#520,10.);
#84=VECTOR('',#523,10.);
#85=VECTOR('',#528,10.);
#86=VECTOR('',#531,10.);
#87=VECTOR('',#534,10.);
#88=VECTOR('',#535,10.);
#89=VECTOR('',#536,10.);
#90=VECTOR('',#537,10.);
#91=VECTOR('',#540,10.);
#92=VECTOR('',#541,10.);
#93=VECTOR('',#542,10.);
#94=VECTOR('',#545,10.);
#95=VECTOR('',#546,10.);
#96=VECTOR('',#547,10.);
#97=VECTOR('',#550,10.);
#98=VECTOR('',#551,10.);
#99=VECTOR('',#556,10.);
#100=VECTOR('',#557,10.);
#101=VECTOR('',#560,10.);
#102=VECTOR('',#561,10.);
#103=PLANE('',#434);
#104=PLANE('',#437);
#105=PLANE('',#438);
#106=PLANE('',#442);
#107=PLANE('',#446);
#108=PLANE('',#447);
#109=PLANE('',#450);
#110=PLANE('',#457);
#111=PLANE('',#458);
#112=PLANE('',#459);
#113=PLANE('',#460);
#114=PLANE('',#461);
#115=PLANE('',#462);
#116=PLANE('',#463);
#117=PLANE('',#464);
#118=PLANE('',#465);
#119=FACE_OUTER_BOUND('',#145,.T.);
#120=FACE_OUTER_BOUND('',#146,.T.);
#121=FACE_OUTER_BOUND('',#147,.T.);
#122=FACE_OUTER_BOUND('',#148,.T.);
#123=FACE_OUTER_BOUND('',#149,.T.);
#124=FACE_OUTER_BOUND('',#150,.T.);
#125=FACE_OUTER_BOUND('',#151,.T.);
#126=FACE_OUTER_BOUND('',#152,.T.);
#127=FACE_OUTER_BOUND('',#153,.T.);
#128=FACE_OUTER_BOUND('',#154,.T.);
#129=FACE_OUTER_BOUND('',#155,.T.);
#130=FACE_OUTER_BOUND('',#156,.T.);
#131=FACE_OUTER_BOUND('',#157,.T.);
#132=FACE_OUTER_BOUND('',#159,.T.);
#133=FACE_OUTER_BOUND('',#160,.T.);
#134=FACE_OUTER_BOUND('',#161,.T.);
#135=FACE_OUTER_BOUND('',#162,.T.);
#136=FACE_OUTER_BOUND('',#163,.T.);
#137=FACE_OUTER_BOUND('',#164,.T.);
#138=FACE_OUTER_BOUND('',#165,.T.);
#139=FACE_OUTER_BOUND('',#166,.T.);
#140=FACE_OUTER_BOUND('',#167,.T.);
#141=FACE_OUTER_BOUND('',#168,.T.);
#142=FACE_OUTER_BOUND('',#169,.T.);
#143=FACE_OUTER_BOUND('',#170,.T.);
#144=FACE_OUTER_BOUND('',#172,.T.);
#145=EDGE_LOOP('',(#277,#278,#279,#280));
#146=EDGE_LOOP('',(#281,#282,#283,#284));
#147=EDGE_LOOP('',(#285,#286,#287,#288));
#148=EDGE_LOOP('',(#289,#290,#291,#292));
#149=EDGE_LOOP('',(#293,#294,#295,#296));
#150=EDGE_LOOP('',(#297,#298,#299,#300));
#151=EDGE_LOOP('',(#301,#302,#303,#304));
#152=EDGE_LOOP('',(#305,#306,#307,#308));
#153=EDGE_LOOP('',(#309,#310,#311,#312));
#154=EDGE_LOOP('',(#313,#314,#315,#316));
#155=EDGE_LOOP('',(#317,#318,#319,#320));
#156=EDGE_LOOP('',(#321,#322,#323,#324));
#157=EDGE_LOOP('',(#325,#326,#327,#328));
#158=EDGE_LOOP('',(#329,#330,#331,#332));
#159=EDGE_LOOP('',(#333,#334,#335,#336));
#160=EDGE_LOOP('',(#337,#338,#339,#340));
#161=EDGE_LOOP('',(#341,#342,#343,#344));
#162=EDGE_LOOP('',(#345,#346,#347,#348));
#163=EDGE_LOOP('',(#349,#350,#351,#352));
#164=EDGE_LOOP('',(#353,#354,#355,#356));
#165=EDGE_LOOP('',(#357,#358,#359,#360));
#166=EDGE_LOOP('',(#361,#362,#363,#364));
#167=EDGE_LOOP('',(#365,#366,#367,#368));
#168=EDGE_LOOP('',(#369,#370,#371,#372));
#169=EDGE_LOOP('',(#373,#374,#375,#376));
#170=EDGE_LOOP('',(#377,#378,#379,#380));
#171=EDGE_LOOP('',(#381,#382,#383,#384));
#172=EDGE_LOOP('',(#385,#386,#387,#388));
#173=B_SPLINE_CURVE_WITH_KNOTS('',3,(#639,#640,#641,#642,#643,#644,#645),
 .UNSPECIFIED.,.F.,.F.,(4,1,1,1,4),(-1.,-0.785714285714286,-0.571428571428571,
-0.285714285714286,0.),.UNSPECIFIED.);
#174=B_SPLINE_CURVE_WITH_KNOTS('',3,(#647,#648,#649,#650,#651,#652,#653,
#654,#655,#656),.UNSPECIFIED.,.F.,.F.,(4,1,1,1,1,1,1,4),(-3.14159145536593,
-2.69279267602794,-2.24399389668995,-1.79519511735196,-1.34639633801397,
-0.897597558675981,-0.448798779337991,0.),.UNSPECIFIED.);
#175=B_SPLINE_CURVE_WITH_KNOTS('',3,(#658,#659,#660,#661,#662,#663,#664),
 .UNSPECIFIED.,.F.,.F.,(4,1,1,1,4),(0.,0.285714285714286,0.571428571428571,
0.785714285714286,1.),.UNSPECIFIED.);
#176=B_SPLINE_CURVE_WITH_KNOTS('',3,(#665,#666,#667,#668,#669,#670,#671,
#672,#673,#674),.UNSPECIFIED.,.F.,.F.,(4,1,1,1,1,1,1,4),(0.,0.448798779337991,
0.897597558675981,1.34639633801397,1.79519511735196,2.24399389668995,2.69279267602794,
3.14159145536593),.UNSPECIFIED.);
#177=B_SPLINE_CURVE_WITH_KNOTS('',3,(#705,#706,#707,#708,#709,#710,#711),
 .UNSPECIFIED.,.F.,.F.,(4,1,1,1,4),(-1.,-0.785714285714286,-0.571428571428571,
-0.285714285714286,0.),.UNSPECIFIED.);
#178=B_SPLINE_CURVE_WITH_KNOTS('',3,(#712,#713,#714,#715),.UNSPECIFIED.,
 .F.,.F.,(4,4),(-3.9399999997515,-2.39589789695929E-7),.UNSPECIFIED.);
#179=B_SPLINE_CURVE_WITH_KNOTS('',3,(#716,#717,#718,#719),.UNSPECIFIED.,
 .F.,.F.,(4,4),(-2.22044604925031E-16,3.9399999997515),.UNSPECIFIED.);
#180=B_SPLINE_CURVE_WITH_KNOTS('',3,(#749,#750,#751,#752),.UNSPECIFIED.,
 .F.,.F.,(4,4),(-3.94000040778646,0.),.UNSPECIFIED.);
#181=B_SPLINE_CURVE_WITH_KNOTS('',3,(#754,#755,#756,#757,#758,#759,#760),
 .UNSPECIFIED.,.F.,.F.,(4,1,1,1,4),(0.,0.285714285714286,0.571428571428571,
0.785714285714286,1.),.UNSPECIFIED.);
#182=B_SPLINE_CURVE_WITH_KNOTS('',3,(#761,#762,#763,#764),.UNSPECIFIED.,
 .F.,.F.,(4,4),(0.,3.94000064689244),.UNSPECIFIED.);
#183=B_SPLINE_CURVE_WITH_KNOTS('',3,(#825,#826,#827,#828,#829,#830,#831,
#832,#833,#834),.UNSPECIFIED.,.F.,.F.,(4,1,1,1,1,1,1,4),(-3.14159325279437,
-2.69279433340905,-2.24399527784088,-1.7951962222727,-1.34639716670453,
-0.897598111136351,-0.448799055568176,5.55111512312578E-17),
 .UNSPECIFIED.);
#184=B_SPLINE_CURVE_WITH_KNOTS('',3,(#835,#836,#837,#838,#839,#840,#841,
#842,#843,#844),.UNSPECIFIED.,.F.,.F.,(4,1,1,1,1,1,1,4),(-5.55111512312578E-17,
0.448799055568176,0.897598111136351,1.34639716670453,1.7951962222727,2.24399527784088,
2.69279433340905,3.14159338897723),.UNSPECIFIED.);
#185=VERTEX_POINT('',#637);
#186=VERTEX_POINT('',#638);
#187=VERTEX_POINT('',#646);
#188=VERTEX_POINT('',#657);
#189=VERTEX_POINT('',#703);
#190=VERTEX_POINT('',#704);
#191=VERTEX_POINT('',#748);
#192=VERTEX_POINT('',#753);
#193=VERTEX_POINT('',#846);
#194=VERTEX_POINT('',#848);
#195=VERTEX_POINT('',#852);
#196=VERTEX_POINT('',#857);
#197=VERTEX_POINT('',#858);
#198=VERTEX_POINT('',#860);
#199=VERTEX_POINT('',#862);
#200=VERTEX_POINT('',#866);
#201=VERTEX_POINT('',#868);
#202=VERTEX_POINT('',#872);
#203=VERTEX_POINT('',#874);
#204=VERTEX_POINT('',#882);
#205=VERTEX_POINT('',#889);
#206=VERTEX_POINT('',#890);
#207=VERTEX_POINT('',#892);
#208=VERTEX_POINT('',#894);
#209=VERTEX_POINT('',#898);
#210=VERTEX_POINT('',#899);
#211=VERTEX_POINT('',#901);
#212=VERTEX_POINT('',#903);
#213=VERTEX_POINT('',#907);
#214=VERTEX_POINT('',#908);
#215=VERTEX_POINT('',#910);
#216=VERTEX_POINT('',#912);
#217=VERTEX_POINT('',#916);
#218=VERTEX_POINT('',#918);
#219=VERTEX_POINT('',#922);
#220=VERTEX_POINT('',#924);
#221=EDGE_CURVE('',#185,#186,#173,.T.);
#222=EDGE_CURVE('',#186,#187,#174,.T.);
#223=EDGE_CURVE('',#187,#188,#175,.T.);
#224=EDGE_CURVE('',#188,#185,#176,.T.);
#225=EDGE_CURVE('',#189,#190,#177,.T.);
#226=EDGE_CURVE('',#190,#188,#178,.T.);
#227=EDGE_CURVE('',#187,#189,#179,.T.);
#228=EDGE_CURVE('',#185,#191,#180,.T.);
#229=EDGE_CURVE('',#191,#192,#181,.T.);
#230=EDGE_CURVE('',#192,#186,#182,.T.);
#231=EDGE_CURVE('',#189,#192,#183,.T.);
#232=EDGE_CURVE('',#191,#190,#184,.T.);
#233=EDGE_CURVE('',#187,#193,#35,.T.);
#234=EDGE_CURVE('',#194,#193,#36,.T.);
#235=EDGE_CURVE('',#189,#194,#37,.T.);
#236=EDGE_CURVE('',#186,#195,#38,.T.);
#237=EDGE_CURVE('',#193,#195,#19,.T.);
#238=EDGE_CURVE('',#196,#197,#39,.T.);
#239=EDGE_CURVE('',#197,#198,#40,.T.);
#240=EDGE_CURVE('',#199,#198,#41,.T.);
#241=EDGE_CURVE('',#196,#199,#42,.T.);
#242=EDGE_CURVE('',#200,#197,#20,.F.);
#243=EDGE_CURVE('',#200,#201,#43,.T.);
#244=EDGE_CURVE('',#198,#201,#21,.T.);
#245=EDGE_CURVE('',#200,#202,#44,.T.);
#246=EDGE_CURVE('',#202,#203,#45,.T.);
#247=EDGE_CURVE('',#201,#203,#46,.T.);
#248=EDGE_CURVE('',#196,#202,#22,.F.);
#249=EDGE_CURVE('',#203,#199,#23,.T.);
#250=EDGE_CURVE('',#195,#204,#47,.T.);
#251=EDGE_CURVE('',#204,#194,#24,.T.);
#252=EDGE_CURVE('',#192,#204,#48,.T.);
#253=EDGE_CURVE('',#205,#206,#25,.T.);
#254=EDGE_CURVE('',#207,#205,#49,.T.);
#255=EDGE_CURVE('',#208,#207,#26,.T.);
#256=EDGE_CURVE('',#208,#206,#50,.T.);
#257=EDGE_CURVE('',#209,#210,#27,.T.);
#258=EDGE_CURVE('',#211,#209,#51,.T.);
#259=EDGE_CURVE('',#212,#211,#28,.T.);
#260=EDGE_CURVE('',#212,#210,#52,.T.);
#261=EDGE_CURVE('',#213,#214,#53,.T.);
#262=EDGE_CURVE('',#213,#215,#54,.T.);
#263=EDGE_CURVE('',#215,#216,#55,.T.);
#264=EDGE_CURVE('',#214,#216,#56,.T.);
#265=EDGE_CURVE('',#217,#213,#57,.T.);
#266=EDGE_CURVE('',#217,#218,#58,.T.);
#267=EDGE_CURVE('',#218,#215,#59,.T.);
#268=EDGE_CURVE('',#219,#217,#60,.T.);
#269=EDGE_CURVE('',#219,#220,#61,.T.);
#270=EDGE_CURVE('',#220,#218,#62,.T.);
#271=EDGE_CURVE('',#214,#219,#63,.T.);
#272=EDGE_CURVE('',#216,#220,#64,.T.);
#273=EDGE_CURVE('',#211,#208,#65,.T.);
#274=EDGE_CURVE('',#206,#209,#66,.T.);
#275=EDGE_CURVE('',#207,#212,#67,.T.);
#276=EDGE_CURVE('',#210,#205,#68,.T.);
#277=ORIENTED_EDGE('',*,*,#221,.T.);
#278=ORIENTED_EDGE('',*,*,#222,.T.);
#279=ORIENTED_EDGE('',*,*,#223,.T.);
#280=ORIENTED_EDGE('',*,*,#224,.T.);
#281=ORIENTED_EDGE('',*,*,#225,.T.);
#282=ORIENTED_EDGE('',*,*,#226,.T.);
#283=ORIENTED_EDGE('',*,*,#223,.F.);
#284=ORIENTED_EDGE('',*,*,#227,.T.);
#285=ORIENTED_EDGE('',*,*,#221,.F.);
#286=ORIENTED_EDGE('',*,*,#228,.T.);
#287=ORIENTED_EDGE('',*,*,#229,.T.);
#288=ORIENTED_EDGE('',*,*,#230,.T.);
#289=ORIENTED_EDGE('',*,*,#225,.F.);
#290=ORIENTED_EDGE('',*,*,#231,.T.);
#291=ORIENTED_EDGE('',*,*,#229,.F.);
#292=ORIENTED_EDGE('',*,*,#232,.T.);
#293=ORIENTED_EDGE('',*,*,#227,.F.);
#294=ORIENTED_EDGE('',*,*,#233,.T.);
#295=ORIENTED_EDGE('',*,*,#234,.F.);
#296=ORIENTED_EDGE('',*,*,#235,.F.);
#297=ORIENTED_EDGE('',*,*,#222,.F.);
#298=ORIENTED_EDGE('',*,*,#236,.T.);
#299=ORIENTED_EDGE('',*,*,#237,.F.);
#300=ORIENTED_EDGE('',*,*,#233,.F.);
#301=ORIENTED_EDGE('',*,*,#224,.F.);
#302=ORIENTED_EDGE('',*,*,#226,.F.);
#303=ORIENTED_EDGE('',*,*,#232,.F.);
#304=ORIENTED_EDGE('',*,*,#228,.F.);
#305=ORIENTED_EDGE('',*,*,#238,.T.);
#306=ORIENTED_EDGE('',*,*,#239,.T.);
#307=ORIENTED_EDGE('',*,*,#240,.F.);
#308=ORIENTED_EDGE('',*,*,#241,.F.);
#309=ORIENTED_EDGE('',*,*,#242,.F.);
#310=ORIENTED_EDGE('',*,*,#243,.T.);
#311=ORIENTED_EDGE('',*,*,#244,.F.);
#312=ORIENTED_EDGE('',*,*,#239,.F.);
#313=ORIENTED_EDGE('',*,*,#245,.T.);
#314=ORIENTED_EDGE('',*,*,#246,.T.);
#315=ORIENTED_EDGE('',*,*,#247,.F.);
#316=ORIENTED_EDGE('',*,*,#243,.F.);
#317=ORIENTED_EDGE('',*,*,#248,.F.);
#318=ORIENTED_EDGE('',*,*,#241,.T.);
#319=ORIENTED_EDGE('',*,*,#249,.F.);
#320=ORIENTED_EDGE('',*,*,#246,.F.);
#321=ORIENTED_EDGE('',*,*,#248,.T.);
#322=ORIENTED_EDGE('',*,*,#245,.F.);
#323=ORIENTED_EDGE('',*,*,#242,.T.);
#324=ORIENTED_EDGE('',*,*,#238,.F.);
#325=ORIENTED_EDGE('',*,*,#237,.T.);
#326=ORIENTED_EDGE('',*,*,#250,.T.);
#327=ORIENTED_EDGE('',*,*,#251,.T.);
#328=ORIENTED_EDGE('',*,*,#234,.T.);
#329=ORIENTED_EDGE('',*,*,#240,.T.);
#330=ORIENTED_EDGE('',*,*,#244,.T.);
#331=ORIENTED_EDGE('',*,*,#247,.T.);
#332=ORIENTED_EDGE('',*,*,#249,.T.);
#333=ORIENTED_EDGE('',*,*,#231,.F.);
#334=ORIENTED_EDGE('',*,*,#235,.T.);
#335=ORIENTED_EDGE('',*,*,#251,.F.);
#336=ORIENTED_EDGE('',*,*,#252,.F.);
#337=ORIENTED_EDGE('',*,*,#230,.F.);
#338=ORIENTED_EDGE('',*,*,#252,.T.);
#339=ORIENTED_EDGE('',*,*,#250,.F.);
#340=ORIENTED_EDGE('',*,*,#236,.F.);
#341=ORIENTED_EDGE('',*,*,#253,.F.);
#342=ORIENTED_EDGE('',*,*,#254,.F.);
#343=ORIENTED_EDGE('',*,*,#255,.F.);
#344=ORIENTED_EDGE('',*,*,#256,.T.);
#345=ORIENTED_EDGE('',*,*,#257,.F.);
#346=ORIENTED_EDGE('',*,*,#258,.F.);
#347=ORIENTED_EDGE('',*,*,#259,.F.);
#348=ORIENTED_EDGE('',*,*,#260,.T.);
#349=ORIENTED_EDGE('',*,*,#261,.F.);
#350=ORIENTED_EDGE('',*,*,#262,.T.);
#351=ORIENTED_EDGE('',*,*,#263,.T.);
#352=ORIENTED_EDGE('',*,*,#264,.F.);
#353=ORIENTED_EDGE('',*,*,#265,.F.);
#354=ORIENTED_EDGE('',*,*,#266,.T.);
#355=ORIENTED_EDGE('',*,*,#267,.T.);
#356=ORIENTED_EDGE('',*,*,#262,.F.);
#357=ORIENTED_EDGE('',*,*,#268,.F.);
#358=ORIENTED_EDGE('',*,*,#269,.T.);
#359=ORIENTED_EDGE('',*,*,#270,.T.);
#360=ORIENTED_EDGE('',*,*,#266,.F.);
#361=ORIENTED_EDGE('',*,*,#271,.F.);
#362=ORIENTED_EDGE('',*,*,#264,.T.);
#363=ORIENTED_EDGE('',*,*,#272,.T.);
#364=ORIENTED_EDGE('',*,*,#269,.F.);
#365=ORIENTED_EDGE('',*,*,#272,.F.);
#366=ORIENTED_EDGE('',*,*,#263,.F.);
#367=ORIENTED_EDGE('',*,*,#267,.F.);
#368=ORIENTED_EDGE('',*,*,#270,.F.);
#369=ORIENTED_EDGE('',*,*,#273,.F.);
#370=ORIENTED_EDGE('',*,*,#258,.T.);
#371=ORIENTED_EDGE('',*,*,#274,.F.);
#372=ORIENTED_EDGE('',*,*,#256,.F.);
#373=ORIENTED_EDGE('',*,*,#275,.F.);
#374=ORIENTED_EDGE('',*,*,#254,.T.);
#375=ORIENTED_EDGE('',*,*,#276,.F.);
#376=ORIENTED_EDGE('',*,*,#260,.F.);
#377=ORIENTED_EDGE('',*,*,#276,.T.);
#378=ORIENTED_EDGE('',*,*,#253,.T.);
#379=ORIENTED_EDGE('',*,*,#274,.T.);
#380=ORIENTED_EDGE('',*,*,#257,.T.);
#381=ORIENTED_EDGE('',*,*,#261,.T.);
#382=ORIENTED_EDGE('',*,*,#271,.T.);
#383=ORIENTED_EDGE('',*,*,#268,.T.);
#384=ORIENTED_EDGE('',*,*,#265,.T.);
#385=ORIENTED_EDGE('',*,*,#273,.T.);
#386=ORIENTED_EDGE('',*,*,#255,.T.);
#387=ORIENTED_EDGE('',*,*,#275,.T.);
#388=ORIENTED_EDGE('',*,*,#259,.T.);
#389=B_SPLINE_SURFACE_WITH_KNOTS('',3,3,((#567,#568,#569,#570,#571,#572,
#573,#574,#575,#576),(#577,#578,#579,#580,#581,#582,#583,#584,#585,#586),
(#587,#588,#589,#590,#591,#592,#593,#594,#595,#596),(#597,#598,#599,#600,
#601,#602,#603,#604,#605,#606),(#607,#608,#609,#610,#611,#612,#613,#614,
#615,#616),(#617,#618,#619,#620,#621,#622,#623,#624,#625,#626),(#627,#628,
#629,#630,#631,#632,#633,#634,#635,#636)),.UNSPECIFIED.,.F.,.F.,.F.,(4,
1,1,1,4),(4,1,1,1,1,1,1,4),(0.,0.285714285714286,0.571428571428571,0.785714285714286,
1.),(0.,0.448798779337991,0.897597558675981,1.34639633801397,1.79519511735196,
2.24399389668995,2.69279267602794,3.14159145536593),.UNSPECIFIED.);
#390=B_SPLINE_SURFACE_WITH_KNOTS('',3,3,((#675,#676,#677,#678),(#679,#680,
#681,#682),(#683,#684,#685,#686),(#687,#688,#689,#690),(#691,#692,#693,
#694),(#695,#696,#697,#698),(#699,#700,#701,#702)),.UNSPECIFIED.,.F.,.F.,
 .F.,(4,1,1,1,4),(4,4),(0.,0.285714285714286,0.571428571428571,0.785714285714286,
1.),(-2.22044604925031E-16,3.9399999997515),.UNSPECIFIED.);
#391=B_SPLINE_SURFACE_WITH_KNOTS('',3,3,((#720,#721,#722,#723),(#724,#725,
#726,#727),(#728,#729,#730,#731),(#732,#733,#734,#735),(#736,#737,#738,
#739),(#740,#741,#742,#743),(#744,#745,#746,#747)),.UNSPECIFIED.,.F.,.F.,
 .F.,(4,1,1,1,4),(4,4),(0.,0.285714285714286,0.571428571428571,0.785714285714286,
1.),(0.,3.94000064718933),.UNSPECIFIED.);
#392=B_SPLINE_SURFACE_WITH_KNOTS('',3,3,((#765,#766,#767,#768,#769,#770,
#771,#772,#773,#774),(#775,#776,#777,#778,#779,#780,#781,#782,#783,#784),
(#785,#786,#787,#788,#789,#790,#791,#792,#793,#794),(#795,#796,#797,#798,
#799,#800,#801,#802,#803,#804),(#805,#806,#807,#808,#809,#810,#811,#812,
#813,#814),(#815,#816,#817,#818,#819,#820,#821,#822,#823,#824)),
 .UNSPECIFIED.,.F.,.F.,.F.,(4,1,1,4),(4,1,1,1,1,1,1,4),(0.,0.285714285714286,
0.571428571428571,1.),(-5.55111512312578E-17,0.448799055568176,0.897598111136351,
1.34639716670453,1.7951962222727,2.24399527784088,2.69279433340905,3.14159338897723),
 .UNSPECIFIED.);
#393=ADVANCED_FACE('',(#119),#389,.T.);
#394=ADVANCED_FACE('',(#120),#390,.T.);
#395=ADVANCED_FACE('',(#121),#391,.T.);
#396=ADVANCED_FACE('',(#122),#392,.T.);
#397=ADVANCED_FACE('',(#123),#103,.T.);
#398=ADVANCED_FACE('',(#124),#29,.T.);
#399=ADVANCED_FACE('',(#125),#104,.F.);
#400=ADVANCED_FACE('',(#126),#105,.F.);
#401=ADVANCED_FACE('',(#127),#30,.F.);
#402=ADVANCED_FACE('',(#128),#106,.F.);
#403=ADVANCED_FACE('',(#129),#31,.F.);
#404=ADVANCED_FACE('',(#130),#107,.T.);
#405=ADVANCED_FACE('',(#131,#17),#108,.T.);
#406=ADVANCED_FACE('',(#132),#32,.T.);
#407=ADVANCED_FACE('',(#133),#109,.T.);
#408=ADVANCED_FACE('',(#134),#33,.T.);
#409=ADVANCED_FACE('',(#135),#34,.T.);
#410=ADVANCED_FACE('',(#136),#110,.F.);
#411=ADVANCED_FACE('',(#137),#111,.F.);
#412=ADVANCED_FACE('',(#138),#112,.F.);
#413=ADVANCED_FACE('',(#139),#113,.F.);
#414=ADVANCED_FACE('',(#140),#114,.F.);
#415=ADVANCED_FACE('',(#141),#115,.T.);
#416=ADVANCED_FACE('',(#142),#116,.T.);
#417=ADVANCED_FACE('',(#143,#18),#117,.T.);
#418=ADVANCED_FACE('',(#144),#118,.F.);
#419=CLOSED_SHELL('',(#393,#394,#395,#396,#397,#398,#399,#400,#401,#402,
#403,#404,#405,#406,#407));
#420=CLOSED_SHELL('',(#408,#409,#410,#411,#412,#413,#414,#415,#416,#417,
#418));
#421=DERIVED_UNIT_ELEMENT(#423,1.);
#422=DERIVED_UNIT_ELEMENT(#944,-3.);
#423=(
MASS_UNIT()
NAMED_UNIT(*)
SI_UNIT(.KILO.,.GRAM.)
);
#424=DERIVED_UNIT((#421,#422));
#425=MEASURE_REPRESENTATION_ITEM('density measure',
POSITIVE_RATIO_MEASURE(7850.),#424);
#426=PROPERTY_DEFINITION_REPRESENTATION(#431,#428);
#427=PROPERTY_DEFINITION_REPRESENTATION(#432,#429);
#428=REPRESENTATION('material name',(#430),#941);
#429=REPRESENTATION('density',(#425),#941);
#430=DESCRIPTIVE_REPRESENTATION_ITEM('Acero','Acero');
#431=PROPERTY_DEFINITION('material property','material name',#951);
#432=PROPERTY_DEFINITION('material property','density of part',#951);
#433=AXIS2_PLACEMENT_3D('',#566,#466,#467);
#434=AXIS2_PLACEMENT_3D('',#845,#468,#469);
#435=AXIS2_PLACEMENT_3D('',#851,#473,#474);
#436=AXIS2_PLACEMENT_3D('',#854,#476,#477);
#437=AXIS2_PLACEMENT_3D('',#855,#478,#479);
#438=AXIS2_PLACEMENT_3D('',#856,#480,#481);
#439=AXIS2_PLACEMENT_3D('',#865,#486,#487);
#440=AXIS2_PLACEMENT_3D('',#867,#488,#489);
#441=AXIS2_PLACEMENT_3D('',#870,#491,#492);
#442=AXIS2_PLACEMENT_3D('',#871,#493,#494);
#443=AXIS2_PLACEMENT_3D('',#877,#498,#499);
#444=AXIS2_PLACEMENT_3D('',#878,#500,#501);
#445=AXIS2_PLACEMENT_3D('',#879,#502,#503);
#446=AXIS2_PLACEMENT_3D('',#880,#504,#505);
#447=AXIS2_PLACEMENT_3D('',#881,#506,#507);
#448=AXIS2_PLACEMENT_3D('',#884,#509,#510);
#449=AXIS2_PLACEMENT_3D('',#885,#511,#512);
#450=AXIS2_PLACEMENT_3D('',#887,#514,#515);
#451=AXIS2_PLACEMENT_3D('',#888,#516,#517);
#452=AXIS2_PLACEMENT_3D('',#891,#518,#519);
#453=AXIS2_PLACEMENT_3D('',#895,#521,#522);
#454=AXIS2_PLACEMENT_3D('',#897,#524,#525);
#455=AXIS2_PLACEMENT_3D('',#900,#526,#527);
#456=AXIS2_PLACEMENT_3D('',#904,#529,#530);
#457=AXIS2_PLACEMENT_3D('',#906,#532,#533);
#458=AXIS2_PLACEMENT_3D('',#915,#538,#539);
#459=AXIS2_PLACEMENT_3D('',#921,#543,#544);
#460=AXIS2_PLACEMENT_3D('',#927,#548,#549);
#461=AXIS2_PLACEMENT_3D('',#930,#552,#553);
#462=AXIS2_PLACEMENT_3D('',#931,#554,#555);
#463=AXIS2_PLACEMENT_3D('',#934,#558,#559);
#464=AXIS2_PLACEMENT_3D('',#937,#562,#563);
#465=AXIS2_PLACEMENT_3D('',#938,#564,#565);
#466=DIRECTION('axis',(0.,0.,1.));
#467=DIRECTION('refdir',(1.,0.,0.));
#468=DIRECTION('center_axis',(1.,0.,0.));
#469=DIRECTION('ref_axis',(0.,0.,-1.));
#470=DIRECTION('',(0.,1.,0.));
#471=DIRECTION('',(0.,0.,-1.));
#472=DIRECTION('',(0.,1.,0.));
#473=DIRECTION('center_axis',(0.,1.,0.));
#474=DIRECTION('ref_axis',(0.999999999999821,0.,-5.98974482358699E-7));
#475=DIRECTION('',(0.,1.,0.));
#476=DIRECTION('center_axis',(0.,1.,0.));
#477=DIRECTION('ref_axis',(0.999999999999821,0.,-5.98974482358699E-7));
#478=DIRECTION('center_axis',(0.,1.,0.));
#479=DIRECTION('ref_axis',(1.,0.,0.));
#480=DIRECTION('center_axis',(1.,0.,0.));
#481=DIRECTION('ref_axis',(0.,0.,-1.));
#482=DIRECTION('',(0.,0.,1.));
#483=DIRECTION('',(0.,1.,0.));
#484=DIRECTION('',(0.,0.,1.));
#485=DIRECTION('',(0.,1.,0.));
#486=DIRECTION('center_axis',(0.,1.,0.));
#487=DIRECTION('ref_axis',(3.67693718078365E-7,0.,0.999999999999932));
#488=DIRECTION('center_axis',(0.,-1.,0.));
#489=DIRECTION('ref_axis',(-1.,0.,0.));
#490=DIRECTION('',(0.,1.,0.));
#491=DIRECTION('center_axis',(0.,-1.,0.));
#492=DIRECTION('ref_axis',(-1.,0.,0.));
#493=DIRECTION('center_axis',(-1.,0.,0.));
#494=DIRECTION('ref_axis',(0.,0.,1.));
#495=DIRECTION('',(0.,0.,-1.));
#496=DIRECTION('',(0.,1.,0.));
#497=DIRECTION('',(0.,0.,-1.));
#498=DIRECTION('center_axis',(0.,1.,0.));
#499=DIRECTION('ref_axis',(0.999999999999821,0.,-5.98974482358699E-7));
#500=DIRECTION('center_axis',(0.,-1.,0.));
#501=DIRECTION('ref_axis',(0.999999999999821,0.,-5.98974482358699E-7));
#502=DIRECTION('center_axis',(0.,-1.,0.));
#503=DIRECTION('ref_axis',(0.999999999999821,0.,-5.98974482358699E-7));
#504=DIRECTION('center_axis',(0.,1.,0.));
#505=DIRECTION('ref_axis',(1.,0.,0.));
#506=DIRECTION('center_axis',(0.,1.,0.));
#507=DIRECTION('ref_axis',(1.,0.,0.));
#508=DIRECTION('',(0.,0.,1.));
#509=DIRECTION('center_axis',(0.,1.,0.));
#510=DIRECTION('ref_axis',(-1.,0.,0.));
#511=DIRECTION('center_axis',(0.,1.,0.));
#512=DIRECTION('ref_axis',(2.99602288916615E-7,0.,0.999999999999955));
#513=DIRECTION('',(0.,1.,0.));
#514=DIRECTION('center_axis',(-1.,0.,0.));
#515=DIRECTION('ref_axis',(0.,0.,1.));
#516=DIRECTION('center_axis',(0.,-1.,0.));
#517=DIRECTION('ref_axis',(1.,0.,0.));
#518=DIRECTION('center_axis',(0.,1.,0.));
#519=DIRECTION('ref_axis',(1.,0.,0.));
#520=DIRECTION('',(0.,1.,0.));
#521=DIRECTION('center_axis',(0.,-1.,0.));
#522=DIRECTION('ref_axis',(1.,0.,0.));
#523=DIRECTION('',(0.,1.,0.));
#524=DIRECTION('center_axis',(0.,-1.,0.));
#525=DIRECTION('ref_axis',(-1.,0.,0.));
#526=DIRECTION('center_axis',(0.,1.,0.));
#527=DIRECTION('ref_axis',(-1.,0.,0.));
#528=DIRECTION('',(0.,1.,0.));
#529=DIRECTION('center_axis',(0.,-1.,0.));
#530=DIRECTION('ref_axis',(-1.,0.,0.));
#531=DIRECTION('',(0.,1.,0.));
#532=DIRECTION('center_axis',(-1.,0.,0.));
#533=DIRECTION('ref_axis',(0.,0.,-1.));
#534=DIRECTION('',(0.,0.,-1.));
#535=DIRECTION('',(0.,-1.,0.));
#536=DIRECTION('',(0.,0.,-1.));
#537=DIRECTION('',(0.,-1.,0.));
#538=DIRECTION('center_axis',(0.,0.,1.));
#539=DIRECTION('ref_axis',(-1.,0.,0.));
#540=DIRECTION('',(-1.,0.,0.));
#541=DIRECTION('',(0.,-1.,0.));
#542=DIRECTION('',(-1.,0.,0.));
#543=DIRECTION('center_axis',(1.,0.,0.));
#544=DIRECTION('ref_axis',(0.,0.,1.));
#545=DIRECTION('',(0.,0.,1.));
#546=DIRECTION('',(0.,-1.,0.));
#547=DIRECTION('',(0.,0.,1.));
#548=DIRECTION('center_axis',(-1.94775969232484E-16,0.,-1.));
#549=DIRECTION('ref_axis',(1.,0.,-1.94775969232484E-16));
#550=DIRECTION('',(1.,0.,-1.94775969232484E-16));
#551=DIRECTION('',(1.,0.,-1.94775969232484E-16));
#552=DIRECTION('center_axis',(0.,-1.,0.));
#553=DIRECTION('ref_axis',(0.,0.,-1.));
#554=DIRECTION('center_axis',(-1.,0.,0.));
#555=DIRECTION('ref_axis',(0.,0.,1.));
#556=DIRECTION('',(0.,0.,-1.));
#557=DIRECTION('',(0.,0.,1.));
#558=DIRECTION('center_axis',(1.,0.,0.));
#559=DIRECTION('ref_axis',(0.,0.,-1.));
#560=DIRECTION('',(0.,0.,1.));
#561=DIRECTION('',(0.,0.,-1.));
#562=DIRECTION('center_axis',(0.,1.,0.));
#563=DIRECTION('ref_axis',(0.,0.,1.));
#564=DIRECTION('center_axis',(0.,1.,0.));
#565=DIRECTION('ref_axis',(1.,0.,0.));
#566=CARTESIAN_POINT('',(0.,0.,0.));
#567=CARTESIAN_POINT('Ctrl Pts',(-8.4,2.,-50.0000064689244));
#568=CARTESIAN_POINT('Ctrl Pts',(-8.40000096774846,2.,-51.6156820745412));
#569=CARTESIAN_POINT('Ctrl Pts',(-9.13756571551935,2.,-54.8457786410275));
#570=CARTESIAN_POINT('Ctrl Pts',(-12.235681967116,2.,-58.7325841891746));
#571=CARTESIAN_POINT('Ctrl Pts',(-16.7144658150214,2.,-60.8906746056745));
#572=CARTESIAN_POINT('Ctrl Pts',(-21.6850325811798,2.,-60.888172230886));
#573=CARTESIAN_POINT('Ctrl Pts',(-26.1646859836707,2.,-58.7338254070788));
#574=CARTESIAN_POINT('Ctrl Pts',(-29.2625522650285,2.,-54.8455295577081));
#575=CARTESIAN_POINT('Ctrl Pts',(-29.9999990318074,2.,-51.61568207751));
#576=CARTESIAN_POINT('Ctrl Pts',(-30.,2.,-50.0000064718933));
#577=CARTESIAN_POINT('Ctrl Pts',(-8.4,1.73062598811941,-50.0000064689244));
#578=CARTESIAN_POINT('Ctrl Pts',(-8.40000096772029,1.73062598811941,-51.6156350463493));
#579=CARTESIAN_POINT('Ctrl Pts',(-9.13763130323635,1.73062598811941,-54.8457842204758));
#580=CARTESIAN_POINT('Ctrl Pts',(-12.2356987116887,1.73062598811941,-58.7325154439232));
#581=CARTESIAN_POINT('Ctrl Pts',(-16.7144931707889,1.73062598811941,-60.8905971544256));
#582=CARTESIAN_POINT('Ctrl Pts',(-21.6850185774859,1.73062598811941,-60.8881213606267));
#583=CARTESIAN_POINT('Ctrl Pts',(-26.1646468267218,1.73062598811941,-58.7337527518332));
#584=CARTESIAN_POINT('Ctrl Pts',(-29.2625046293796,1.73062598811941,-54.8455327322087));
#585=CARTESIAN_POINT('Ctrl Pts',(-29.9999990318356,1.73062598811941,-51.6156350493181));
#586=CARTESIAN_POINT('Ctrl Pts',(-30.,1.73062598811941,-50.0000064718933));
#587=CARTESIAN_POINT('Ctrl Pts',(-8.51245336021932,1.13999512308698,-50.0000064015677));
#588=CARTESIAN_POINT('Ctrl Pts',(-8.51245431794254,1.13999512308698,-51.5989446730177));
#589=CARTESIAN_POINT('Ctrl Pts',(-9.24221984330248,1.13999512308698,-54.795312545969));
#590=CARTESIAN_POINT('Ctrl Pts',(-12.3081663777866,1.13999512308698,-58.641782673763));
#591=CARTESIAN_POINT('Ctrl Pts',(-16.7402962449113,1.13999512308698,-60.7774181559086));
#592=CARTESIAN_POINT('Ctrl Pts',(-21.65918305878,1.13999512308698,-60.7748934302327));
#593=CARTESIAN_POINT('Ctrl Pts',(-26.0922385568162,1.13999512308698,-58.6430180881418));
#594=CARTESIAN_POINT('Ctrl Pts',(-29.1578642163842,1.13999512308698,-54.795070435828));
#595=CARTESIAN_POINT('Ctrl Pts',(-29.8875456816179,1.13999512308698,-51.5989446759556));
#596=CARTESIAN_POINT('Ctrl Pts',(-29.8875466397807,1.13999512308698,-50.0000064045057));
#597=CARTESIAN_POINT('Ctrl Pts',(-9.06708033194322,0.42929943178454,-50.0000060693603));
#598=CARTESIAN_POINT('Ctrl Pts',(-9.06708123992296,0.42929943178454,-51.5158965880267));
#599=CARTESIAN_POINT('Ctrl Pts',(-9.75907529888209,0.42929943178454,-54.5464697283192));
#600=CARTESIAN_POINT('Ctrl Pts',(-12.6658413812294,0.42929943178454,-58.1932157162039));
#601=CARTESIAN_POINT('Ctrl Pts',(-16.8679833178749,0.42929943178454,-60.2180098401607));
#602=CARTESIAN_POINT('Ctrl Pts',(-21.5315432615249,0.42929943178454,-60.2156564561951));
#603=CARTESIAN_POINT('Ctrl Pts',(-25.734508541122,0.42929943178454,-58.1943810878928));
#604=CARTESIAN_POINT('Ctrl Pts',(-28.641031630814,0.42929943178454,-54.5462365342419));
#605=CARTESIAN_POINT('Ctrl Pts',(-29.3329187596603,0.42929943178454,-51.5158965908122));
#606=CARTESIAN_POINT('Ctrl Pts',(-29.3329196680568,0.42929943178454,-50.0000060721458));
#607=CARTESIAN_POINT('Ctrl Pts',(-9.7672090398545,0.0622239613313499,-50.0000056500011));
#608=CARTESIAN_POINT('Ctrl Pts',(-9.76720988507073,0.06222396133135,-51.4111112234207));
#609=CARTESIAN_POINT('Ctrl Pts',(-10.4114541511307,0.0622239613313502,-54.2323391885355));
#610=CARTESIAN_POINT('Ctrl Pts',(-13.1173317311284,0.0622239613313498,-57.6270436131187));
#611=CARTESIAN_POINT('Ctrl Pts',(-17.0291391202734,0.06222396133135,-59.5119272764468));
#612=CARTESIAN_POINT('Ctrl Pts',(-21.370433029635,0.0622239613313498,-59.5097620992079));
#613=CARTESIAN_POINT('Ctrl Pts',(-25.2829724275241,0.0622239613313501,-57.6281246982421));
#614=CARTESIAN_POINT('Ctrl Pts',(-27.9886626804644,0.0622239613313497,-54.2321197906055));
#615=CARTESIAN_POINT('Ctrl Pts',(-28.6327901145414,0.0622239613313498,-51.4111112260137));
#616=CARTESIAN_POINT('Ctrl Pts',(-28.6327909601455,0.0622239613313499,-50.0000056525941));
#617=CARTESIAN_POINT('Ctrl Pts',(-10.1979694910892,0.,-50.0000053919866));
#618=CARTESIAN_POINT('Ctrl Pts',(-10.1979702977429,2.97952747991304E-17,
-51.3467299031152));
#619=CARTESIAN_POINT('Ctrl Pts',(-10.8127122140876,1.00149215894133E-16,
-54.039057026782));
#620=CARTESIAN_POINT('Ctrl Pts',(-13.3950835860346,-3.80209839721019E-17,
-57.2788309868352));
#621=CARTESIAN_POINT('Ctrl Pts',(-17.1282400081169,3.83723601005209E-17,
-59.0776499288286));
#622=CARTESIAN_POINT('Ctrl Pts',(-21.2713349640669,-4.71599403342761E-17,
-59.0755503492696));
#623=CARTESIAN_POINT('Ctrl Pts',(-25.0052347418599,4.14953683640846E-17,
-57.2798675979181));
#624=CARTESIAN_POINT('Ctrl Pts',(-27.5873768072631,-6.42797693217882E-17,
-54.0388506587981));
#625=CARTESIAN_POINT('Ctrl Pts',(-28.2020297018869,-4.6896579696879E-17,
-51.3467299055898));
#626=CARTESIAN_POINT('Ctrl Pts',(-28.2020305089108,0.,-50.0000053944612));
#627=CARTESIAN_POINT('Ctrl Pts',(-10.3999999999996,0.,-50.0000052709754));
#628=CARTESIAN_POINT('Ctrl Pts',(-10.4000007885354,0.,-51.3164816903669));
#629=CARTESIAN_POINT('Ctrl Pts',(-11.0009794719043,0.,-53.9484122260226));
#630=CARTESIAN_POINT('Ctrl Pts',(-13.5253704917239,0.,-57.1154389689573));
#631=CARTESIAN_POINT('Ctrl Pts',(-17.1747499233507,0.,-58.8738830120314));
#632=CARTESIAN_POINT('Ctrl Pts',(-21.2248413624429,0.,-58.8718440399816));
#633=CARTESIAN_POINT('Ctrl Pts',(-24.8749293200282,0.,-57.1164503316941));
#634=CARTESIAN_POINT('Ctrl Pts',(-27.3991166603939,0.,-53.9482092692438));
#635=CARTESIAN_POINT('Ctrl Pts',(-27.9999992111027,0.,-51.316481692786));
#636=CARTESIAN_POINT('Ctrl Pts',(-28.0000000000004,0.,-50.0000052733945));
#637=CARTESIAN_POINT('',(-28.0000000000004,0.,-50.0000052733945));
#638=CARTESIAN_POINT('',(-30.,2.,-50.0000064718933));
#639=CARTESIAN_POINT('Ctrl Pts',(-28.0000000000004,0.,-50.0000052733945));
#640=CARTESIAN_POINT('Ctrl Pts',(-28.2020305089108,0.,-50.0000053944612));
#641=CARTESIAN_POINT('Ctrl Pts',(-28.6327909601455,0.0622239613313499,-50.0000056525941));
#642=CARTESIAN_POINT('Ctrl Pts',(-29.3329196680568,0.42929943178454,-50.0000060721458));
#643=CARTESIAN_POINT('Ctrl Pts',(-29.8875466397807,1.13999512308698,-50.0000064045057));
#644=CARTESIAN_POINT('Ctrl Pts',(-30.,1.73062598811941,-50.0000064718933));
#645=CARTESIAN_POINT('Ctrl Pts',(-30.,2.,-50.0000064718933));
#646=CARTESIAN_POINT('',(-8.4,2.,-50.0000064689244));
#647=CARTESIAN_POINT('Ctrl Pts',(-30.,2.,-50.0000064718933));
#648=CARTESIAN_POINT('Ctrl Pts',(-29.9999990318074,2.,-51.61568207751));
#649=CARTESIAN_POINT('Ctrl Pts',(-29.2625522650285,2.,-54.8455295577081));
#650=CARTESIAN_POINT('Ctrl Pts',(-26.1646859836707,2.,-58.7338254070788));
#651=CARTESIAN_POINT('Ctrl Pts',(-21.6850325811798,2.,-60.888172230886));
#652=CARTESIAN_POINT('Ctrl Pts',(-16.7144658150214,2.,-60.8906746056745));
#653=CARTESIAN_POINT('Ctrl Pts',(-12.235681967116,2.,-58.7325841891746));
#654=CARTESIAN_POINT('Ctrl Pts',(-9.13756571551935,2.,-54.8457786410275));
#655=CARTESIAN_POINT('Ctrl Pts',(-8.40000096774846,2.,-51.6156820745412));
#656=CARTESIAN_POINT('Ctrl Pts',(-8.4,2.,-50.0000064689244));
#657=CARTESIAN_POINT('',(-10.3999999999996,0.,-50.0000052709754));
#658=CARTESIAN_POINT('Ctrl Pts',(-8.4,2.,-50.0000064689244));
#659=CARTESIAN_POINT('Ctrl Pts',(-8.4,1.73062598811941,-50.0000064689244));
#660=CARTESIAN_POINT('Ctrl Pts',(-8.51245336021932,1.13999512308698,-50.0000064015677));
#661=CARTESIAN_POINT('Ctrl Pts',(-9.06708033194322,0.42929943178454,-50.0000060693603));
#662=CARTESIAN_POINT('Ctrl Pts',(-9.7672090398545,0.0622239613313499,-50.0000056500011));
#663=CARTESIAN_POINT('Ctrl Pts',(-10.1979694910892,0.,-50.0000053919866));
#664=CARTESIAN_POINT('Ctrl Pts',(-10.3999999999996,0.,-50.0000052709754));
#665=CARTESIAN_POINT('Ctrl Pts',(-10.3999999999996,0.,-50.0000052709754));
#666=CARTESIAN_POINT('Ctrl Pts',(-10.4000007885354,0.,-51.3164816903669));
#667=CARTESIAN_POINT('Ctrl Pts',(-11.0009794719043,0.,-53.9484122260226));
#668=CARTESIAN_POINT('Ctrl Pts',(-13.5253704917239,0.,-57.1154389689573));
#669=CARTESIAN_POINT('Ctrl Pts',(-17.1747499233507,0.,-58.8738830120314));
#670=CARTESIAN_POINT('Ctrl Pts',(-21.2248413624429,0.,-58.8718440399816));
#671=CARTESIAN_POINT('Ctrl Pts',(-24.8749293200282,0.,-57.1164503316941));
#672=CARTESIAN_POINT('Ctrl Pts',(-27.3991166603939,0.,-53.9482092692438));
#673=CARTESIAN_POINT('Ctrl Pts',(-27.9999992111027,0.,-51.316481692786));
#674=CARTESIAN_POINT('Ctrl Pts',(-28.0000000000004,0.,-50.0000052733945));
#675=CARTESIAN_POINT('Ctrl Pts',(-10.4,0.,-50.0000064689244));
#676=CARTESIAN_POINT('Ctrl Pts',(-10.4,0.,-36.8666731364194));
#677=CARTESIAN_POINT('Ctrl Pts',(-10.4,0.,-23.7333398039144));
#678=CARTESIAN_POINT('Ctrl Pts',(-10.4,0.,-10.6000064714094));
#679=CARTESIAN_POINT('Ctrl Pts',(-10.1306259881194,0.,-50.0000064689244));
#680=CARTESIAN_POINT('Ctrl Pts',(-10.1306259881194,0.,-36.8666731364195));
#681=CARTESIAN_POINT('Ctrl Pts',(-10.1306259881194,0.,-23.7333398039144));
#682=CARTESIAN_POINT('Ctrl Pts',(-10.1306259881194,0.,-10.6000064714094));
#683=CARTESIAN_POINT('Ctrl Pts',(-9.54002624250499,0.112439897171043,-50.0000064689244));
#684=CARTESIAN_POINT('Ctrl Pts',(-9.54002624250499,0.112439897171043,-36.8666731364194));
#685=CARTESIAN_POINT('Ctrl Pts',(-9.54002624250499,0.112439897171043,-23.7333398039145));
#686=CARTESIAN_POINT('Ctrl Pts',(-9.54002624250499,0.112439897171043,-10.6000064714094));
#687=CARTESIAN_POINT('Ctrl Pts',(-8.82931008724815,0.667077154539795,-50.0000064689244));
#688=CARTESIAN_POINT('Ctrl Pts',(-8.82931008724815,0.667077154539795,-36.8666731364195));
#689=CARTESIAN_POINT('Ctrl Pts',(-8.82931008724815,0.667077154539795,-23.7333398039144));
#690=CARTESIAN_POINT('Ctrl Pts',(-8.82931008724815,0.667077154539795,-10.6000064714094));
#691=CARTESIAN_POINT('Ctrl Pts',(-8.46223792345363,1.3672089555329,-50.0000064689244));
#692=CARTESIAN_POINT('Ctrl Pts',(-8.46223792345363,1.3672089555329,-36.8666731364194));
#693=CARTESIAN_POINT('Ctrl Pts',(-8.46223792345363,1.3672089555329,-23.7333398039145));
#694=CARTESIAN_POINT('Ctrl Pts',(-8.46223792345363,1.3672089555329,-10.6000064714094));
#695=CARTESIAN_POINT('Ctrl Pts',(-8.4,1.79796949108956,-50.0000064689244));
#696=CARTESIAN_POINT('Ctrl Pts',(-8.4,1.79796949108956,-36.8666731364194));
#697=CARTESIAN_POINT('Ctrl Pts',(-8.4,1.79796949108956,-23.7333398039144));
#698=CARTESIAN_POINT('Ctrl Pts',(-8.4,1.79796949108956,-10.6000064714094));
#699=CARTESIAN_POINT('Ctrl Pts',(-8.4,2.,-50.0000064689244));
#700=CARTESIAN_POINT('Ctrl Pts',(-8.4,2.,-36.8666731364194));
#701=CARTESIAN_POINT('Ctrl Pts',(-8.4,2.,-23.7333398039144));
#702=CARTESIAN_POINT('Ctrl Pts',(-8.4,2.,-10.6000064714094));
#703=CARTESIAN_POINT('',(-8.4,2.,-10.6000064714094));
#704=CARTESIAN_POINT('',(-10.4,0.,-10.6000064714094));
#705=CARTESIAN_POINT('Ctrl Pts',(-8.4,2.,-10.6000064714094));
#706=CARTESIAN_POINT('Ctrl Pts',(-8.4,1.79796949108956,-10.6000064714094));
#707=CARTESIAN_POINT('Ctrl Pts',(-8.46223792345363,1.3672089555329,-10.6000064714094));
#708=CARTESIAN_POINT('Ctrl Pts',(-8.82931008724815,0.667077154539795,-10.6000064714094));
#709=CARTESIAN_POINT('Ctrl Pts',(-9.54002624250499,0.112439897171043,-10.6000064714094));
#710=CARTESIAN_POINT('Ctrl Pts',(-10.1306259881194,0.,-10.6000064714094));
#711=CARTESIAN_POINT('Ctrl Pts',(-10.4,0.,-10.6000064714094));
#712=CARTESIAN_POINT('Ctrl Pts',(-10.4,0.,-10.6000064714094));
#713=CARTESIAN_POINT('Ctrl Pts',(-10.4,0.,-23.7333390052818));
#714=CARTESIAN_POINT('Ctrl Pts',(-10.4,0.,-36.8666715391541));
#715=CARTESIAN_POINT('Ctrl Pts',(-10.4,0.,-50.0000040730265));
#716=CARTESIAN_POINT('Ctrl Pts',(-8.4,2.,-50.0000064689244));
#717=CARTESIAN_POINT('Ctrl Pts',(-8.4,2.,-36.8666731364194));
#718=CARTESIAN_POINT('Ctrl Pts',(-8.4,2.,-23.7333398039144));
#719=CARTESIAN_POINT('Ctrl Pts',(-8.4,2.,-10.6000064714094));
#720=CARTESIAN_POINT('Ctrl Pts',(-28.,0.,-10.6));
#721=CARTESIAN_POINT('Ctrl Pts',(-28.,0.,-23.7333354906311));
#722=CARTESIAN_POINT('Ctrl Pts',(-28.,0.,-36.8666709812622));
#723=CARTESIAN_POINT('Ctrl Pts',(-28.,0.,-50.0000064718933));
#724=CARTESIAN_POINT('Ctrl Pts',(-28.2693740118806,0.,-10.6));
#725=CARTESIAN_POINT('Ctrl Pts',(-28.2693740118806,0.,-23.733335490631));
#726=CARTESIAN_POINT('Ctrl Pts',(-28.2693740118806,0.,-36.8666709812622));
#727=CARTESIAN_POINT('Ctrl Pts',(-28.2693740118806,0.,-50.0000064718933));
#728=CARTESIAN_POINT('Ctrl Pts',(-28.8600008346069,0.112451626246769,-10.6));
#729=CARTESIAN_POINT('Ctrl Pts',(-28.8600008346069,0.112451626246769,-23.7333354906312));
#730=CARTESIAN_POINT('Ctrl Pts',(-28.8600008346069,0.112451626246769,-36.8666709812621));
#731=CARTESIAN_POINT('Ctrl Pts',(-28.8600008346069,0.112451626246769,-50.0000064718933));
#732=CARTESIAN_POINT('Ctrl Pts',(-29.570699133139,0.667079908884101,-10.6));
#733=CARTESIAN_POINT('Ctrl Pts',(-29.570699133139,0.667079908884101,-23.733335490631));
#734=CARTESIAN_POINT('Ctrl Pts',(-29.570699133139,0.667079908884101,-36.8666709812622));
#735=CARTESIAN_POINT('Ctrl Pts',(-29.570699133139,0.667079908884101,-50.0000064718933));
#736=CARTESIAN_POINT('Ctrl Pts',(-29.9377741907597,1.36720900506589,-10.6));
#737=CARTESIAN_POINT('Ctrl Pts',(-29.9377741907597,1.36720900506589,-23.7333354906311));
#738=CARTESIAN_POINT('Ctrl Pts',(-29.9377741907597,1.36720900506589,-36.8666709812621));
#739=CARTESIAN_POINT('Ctrl Pts',(-29.9377741907597,1.36720900506589,-50.0000064718933));
#740=CARTESIAN_POINT('Ctrl Pts',(-30.,1.79796949108956,-10.6));
#741=CARTESIAN_POINT('Ctrl Pts',(-30.,1.79796949108956,-23.7333354906311));
#742=CARTESIAN_POINT('Ctrl Pts',(-30.,1.79796949108956,-36.8666709812622));
#743=CARTESIAN_POINT('Ctrl Pts',(-30.,1.79796949108956,-50.0000064718933));
#744=CARTESIAN_POINT('Ctrl Pts',(-30.,2.,-10.6));
#745=CARTESIAN_POINT('Ctrl Pts',(-30.,2.,-23.7333354906311));
#746=CARTESIAN_POINT('Ctrl Pts',(-30.,2.,-36.8666709812622));
#747=CARTESIAN_POINT('Ctrl Pts',(-30.,2.,-50.0000064718933));
#748=CARTESIAN_POINT('',(-28.,0.,-10.6));
#749=CARTESIAN_POINT('Ctrl Pts',(-28.,0.,-50.0000040778646));
#750=CARTESIAN_POINT('Ctrl Pts',(-28.,0.,-36.8666693852431));
#751=CARTESIAN_POINT('Ctrl Pts',(-28.,0.,-23.7333346926216));
#752=CARTESIAN_POINT('Ctrl Pts',(-28.,0.,-10.6));
#753=CARTESIAN_POINT('',(-30.,2.,-10.6));
#754=CARTESIAN_POINT('Ctrl Pts',(-28.,0.,-10.6));
#755=CARTESIAN_POINT('Ctrl Pts',(-28.2693740118806,0.,-10.6));
#756=CARTESIAN_POINT('Ctrl Pts',(-28.8600008346069,0.112451626246769,-10.6));
#757=CARTESIAN_POINT('Ctrl Pts',(-29.570699133139,0.667079908884101,-10.6));
#758=CARTESIAN_POINT('Ctrl Pts',(-29.9377741907597,1.36720900506589,-10.6));
#759=CARTESIAN_POINT('Ctrl Pts',(-30.,1.79796949108956,-10.6));
#760=CARTESIAN_POINT('Ctrl Pts',(-30.,2.,-10.6));
#761=CARTESIAN_POINT('Ctrl Pts',(-30.,2.,-10.6));
#762=CARTESIAN_POINT('Ctrl Pts',(-30.,2.,-23.7333354896415));
#763=CARTESIAN_POINT('Ctrl Pts',(-30.,2.,-36.8666709792829));
#764=CARTESIAN_POINT('Ctrl Pts',(-30.,2.,-50.0000064689244));
#765=CARTESIAN_POINT('Ctrl Pts',(-30.,2.,-10.6));
#766=CARTESIAN_POINT('Ctrl Pts',(-30.,2.,-8.98432339995457));
#767=CARTESIAN_POINT('Ctrl Pts',(-29.2627010475883,2.,-5.75449318745869));
#768=CARTESIAN_POINT('Ctrl Pts',(-26.1646118582909,2.,-1.86626572752482));
#769=CARTESIAN_POINT('Ctrl Pts',(-21.6851915577301,2.,0.288130048252839));
#770=CARTESIAN_POINT('Ctrl Pts',(-16.7143914301464,2.,0.29057955138514));
#771=CARTESIAN_POINT('Ctrl Pts',(-12.2366613834407,2.,-1.86837698855736));
#772=CARTESIAN_POINT('Ctrl Pts',(-9.1362534175674,2.,-5.75317103111885));
#773=CARTESIAN_POINT('Ctrl Pts',(-8.39999881185464,2.,-8.98433134213932));
#774=CARTESIAN_POINT('Ctrl Pts',(-8.40000000000292,2.,-10.6000079421843));
#775=CARTESIAN_POINT('Ctrl Pts',(-30.,1.73062598811941,-10.6));
#776=CARTESIAN_POINT('Ctrl Pts',(-30.,1.73062598811941,-8.98448635880663));
#777=CARTESIAN_POINT('Ctrl Pts',(-29.2625959209014,1.73062598811941,-5.75442787771112));
#778=CARTESIAN_POINT('Ctrl Pts',(-26.1645098728885,1.73062598811941,-1.86644698903592));
#779=CARTESIAN_POINT('Ctrl Pts',(-21.6851655056314,1.73062598811941,0.288068155062787));
#780=CARTESIAN_POINT('Ctrl Pts',(-16.7144534942991,1.73062598811941,0.290396056362016));
#781=CARTESIAN_POINT('Ctrl Pts',(-12.236680816644,1.73062598811941,-1.86847355626447));
#782=CARTESIAN_POINT('Ctrl Pts',(-9.13647381277002,1.73062598811941,-5.75310468069198));
#783=CARTESIAN_POINT('Ctrl Pts',(-8.39999881197448,1.73062598811941,-8.98449430099139));
#784=CARTESIAN_POINT('Ctrl Pts',(-8.40000000000292,1.73062598811941,-10.6000079421843));
#785=CARTESIAN_POINT('Ctrl Pts',(-29.8895224334637,1.14356511187088,-10.6));
#786=CARTESIAN_POINT('Ctrl Pts',(-29.8895224334637,1.14356511187088,-9.00088436952456));
#787=CARTESIAN_POINT('Ctrl Pts',(-29.1597439599237,1.14356511187088,-5.80404638557602));
#788=CARTESIAN_POINT('Ctrl Pts',(-26.0933470244574,1.14356511187087,-1.95564395624287));
#789=CARTESIAN_POINT('Ctrl Pts',(-21.6597641632279,1.14356511187088,0.176738217290856));
#790=CARTESIAN_POINT('Ctrl Pts',(-16.7398305069002,1.14356511187088,0.179137620298968));
#791=CARTESIAN_POINT('Ctrl Pts',(-12.3078961916408,1.14356511187088,-1.95771617815306));
#792=CARTESIAN_POINT('Ctrl Pts',(-9.23924493928829,1.14356511187088,-5.8027375397863));
#793=CARTESIAN_POINT('Ctrl Pts',(-8.51047639056968,1.14356511187088,-9.00089223046548));
#794=CARTESIAN_POINT('Ctrl Pts',(-8.51047756653923,1.14356511187088,-10.6000078609405));
#795=CARTESIAN_POINT('Ctrl Pts',(-29.1796667882578,0.23169584274862,-10.6));
#796=CARTESIAN_POINT('Ctrl Pts',(-29.1796667882578,0.23169584274862,-9.10704463778915));
#797=CARTESIAN_POINT('Ctrl Pts',(-28.4983709166644,0.23169584274862,-6.12254241813774));
#798=CARTESIAN_POINT('Ctrl Pts',(-25.6356025960297,0.23169584274862,-2.52965165835378));
#799=CARTESIAN_POINT('Ctrl Pts',(-21.4964244684791,0.23169584274862,-0.538897104234156));
#800=CARTESIAN_POINT('Ctrl Pts',(-16.9031901164203,0.23169584274862,-0.536633394510157));
#801=CARTESIAN_POINT('Ctrl Pts',(-12.7655741128774,0.23169584274862,-2.53160273794615));
#802=CARTESIAN_POINT('Ctrl Pts',(-9.9006627146864,0.23169584274862,-6.12132069078506));
#803=CARTESIAN_POINT('Ctrl Pts',(-9.22033211384429,0.23169584274862,-9.10705197671114));
#804=CARTESIAN_POINT('Ctrl Pts',(-9.22033321174491,0.23169584274862,-10.6000073389216));
#805=CARTESIAN_POINT('Ctrl Pts',(-28.4040610178209,0.,-10.6));
#806=CARTESIAN_POINT('Ctrl Pts',(-28.4040610178209,3.45936901864288E-18,
-9.22360471758469));
#807=CARTESIAN_POINT('Ctrl Pts',(-27.7753728116923,1.65342163832357E-16,
-6.47031189099705));
#808=CARTESIAN_POINT('Ctrl Pts',(-25.1351050585772,-1.72716299065701E-16,
-3.1574570280377));
#809=CARTESIAN_POINT('Ctrl Pts',(-21.3178648863245,1.01052133094386E-16,
-1.32103314979173));
#810=CARTESIAN_POINT('Ctrl Pts',(-17.0818967042818,-5.54695745381918E-17,
-1.3193406209564));
#811=CARTESIAN_POINT('Ctrl Pts',(-13.2657118746082,1.34407876055625E-17,
-3.15898118793447));
#812=CARTESIAN_POINT('Ctrl Pts',(-10.6241105875113,-7.95670786857008E-17,
-6.46918173201653));
#813=CARTESIAN_POINT('Ctrl Pts',(-9.99593796999781,1.03063909726594E-16,
-9.2236114861359));
#814=CARTESIAN_POINT('Ctrl Pts',(-9.9959389821816,0.,-10.6000067685508));
#815=CARTESIAN_POINT('Ctrl Pts',(-28.,0.,-10.6));
#816=CARTESIAN_POINT('Ctrl Pts',(-28.,0.,-9.28352277033336));
#817=CARTESIAN_POINT('Ctrl Pts',(-27.3992378906275,0.,-6.65180926385523));
#818=CARTESIAN_POINT('Ctrl Pts',(-24.8748689215704,0.,-3.48362392613134));
#819=CARTESIAN_POINT('Ctrl Pts',(-21.2249708988912,0.,-1.72819033105324));
#820=CARTESIAN_POINT('Ctrl Pts',(-17.1746893134526,0.,-1.72619443961211));
#821=CARTESIAN_POINT('Ctrl Pts',(-13.5261685346554,0.,-3.48534421289859));
#822=CARTESIAN_POINT('Ctrl Pts',(-10.999910192092,0.,-6.65073195128203));
#823=CARTESIAN_POINT('Ctrl Pts',(-10.3999990318816,0.,-9.28352924174316));
#824=CARTESIAN_POINT('Ctrl Pts',(-10.4000000000024,0.,-10.6000064714095));
#825=CARTESIAN_POINT('Ctrl Pts',(-8.40000000000194,2.,-10.6000064714094));
#826=CARTESIAN_POINT('Ctrl Pts',(-8.39999903526258,2.,-8.98433036168128));
#827=CARTESIAN_POINT('Ctrl Pts',(-9.13625373116166,2.,-5.75317063818698));
#828=CARTESIAN_POINT('Ctrl Pts',(-12.2366613834407,2.,-1.86837698855736));
#829=CARTESIAN_POINT('Ctrl Pts',(-16.7143914301464,2.,0.29057955138514));
#830=CARTESIAN_POINT('Ctrl Pts',(-21.6851915577301,2.,0.288130048252839));
#831=CARTESIAN_POINT('Ctrl Pts',(-26.1646118582909,2.,-1.86626572752482));
#832=CARTESIAN_POINT('Ctrl Pts',(-29.2627010475883,2.,-5.75449318745869));
#833=CARTESIAN_POINT('Ctrl Pts',(-30.,2.,-8.98432339995457));
#834=CARTESIAN_POINT('Ctrl Pts',(-30.,2.,-10.6));
#835=CARTESIAN_POINT('Ctrl Pts',(-28.,0.,-10.6));
#836=CARTESIAN_POINT('Ctrl Pts',(-28.,0.,-9.28352277033336));
#837=CARTESIAN_POINT('Ctrl Pts',(-27.3992378906275,0.,-6.65180926385523));
#838=CARTESIAN_POINT('Ctrl Pts',(-24.8748689215704,0.,-3.48362392613134));
#839=CARTESIAN_POINT('Ctrl Pts',(-21.2249708988912,0.,-1.72819033105324));
#840=CARTESIAN_POINT('Ctrl Pts',(-17.1746893134526,0.,-1.72619443961211));
#841=CARTESIAN_POINT('Ctrl Pts',(-13.5261685346554,0.,-3.48534421289859));
#842=CARTESIAN_POINT('Ctrl Pts',(-10.999910192092,0.,-6.65073195128203));
#843=CARTESIAN_POINT('Ctrl Pts',(-10.3999990318816,0.,-9.28352924174316));
#844=CARTESIAN_POINT('Ctrl Pts',(-10.4000000000024,0.,-10.6000064714095));
#845=CARTESIAN_POINT('Origin',(-8.4,0.,-10.6000064714094));
#846=CARTESIAN_POINT('',(-8.4,9.487,-50.0000064689244));
#847=CARTESIAN_POINT('',(-8.4,0.,-50.0000064689244));
#848=CARTESIAN_POINT('',(-8.40000000000194,9.487,-10.6000064714094));
#849=CARTESIAN_POINT('',(-8.4,9.487,-50.0000064689244));
#850=CARTESIAN_POINT('',(-8.40000000000194,0.,-10.6000064714094));
#851=CARTESIAN_POINT('Origin',(-19.2,0.,-50.));
#852=CARTESIAN_POINT('',(-30.,9.487,-50.0000064718933));
#853=CARTESIAN_POINT('',(-30.,0.,-50.0000064718933));
#854=CARTESIAN_POINT('Origin',(-19.2,9.487,-50.));
#855=CARTESIAN_POINT('Origin',(-19.2,0.,-30.300000000001));
#856=CARTESIAN_POINT('Origin',(-10.4,0.,-10.6000064714094));
#857=CARTESIAN_POINT('',(-10.4,2.,-50.0000064689244));
#858=CARTESIAN_POINT('',(-10.4000000000019,2.,-10.6000064714094));
#859=CARTESIAN_POINT('',(-10.4,2.,-20.4500032357052));
#860=CARTESIAN_POINT('',(-10.4000000000019,9.487,-10.6000064714094));
#861=CARTESIAN_POINT('',(-10.4000000000019,0.,-10.6000064714094));
#862=CARTESIAN_POINT('',(-10.4,9.487,-50.0000064689244));
#863=CARTESIAN_POINT('',(-10.4,9.487,-20.4500032357052));
#864=CARTESIAN_POINT('',(-10.4,0.,-50.0000064689244));
#865=CARTESIAN_POINT('Origin',(-19.2,0.,-10.6));
#866=CARTESIAN_POINT('',(-28.,2.,-10.6));
#867=CARTESIAN_POINT('Origin',(-19.2,2.,-10.6));
#868=CARTESIAN_POINT('',(-28.,9.487,-10.6));
#869=CARTESIAN_POINT('',(-28.,0.,-10.6));
#870=CARTESIAN_POINT('Origin',(-19.2,9.487,-10.6));
#871=CARTESIAN_POINT('Origin',(-28.,0.,-50.0000064689244));
#872=CARTESIAN_POINT('',(-28.,2.,-50.0000064718933));
#873=CARTESIAN_POINT('',(-28.,2.,-40.1500032344627));
#874=CARTESIAN_POINT('',(-28.,9.487,-50.0000064718933));
#875=CARTESIAN_POINT('',(-28.,0.,-50.0000064718933));
#876=CARTESIAN_POINT('',(-28.,9.487,-40.1500032344627));
#877=CARTESIAN_POINT('Origin',(-19.2,0.,-50.));
#878=CARTESIAN_POINT('Origin',(-19.2,2.,-50.));
#879=CARTESIAN_POINT('Origin',(-19.2,9.487,-50.));
#880=CARTESIAN_POINT('Origin',(-19.2,2.,-30.300000000001));
#881=CARTESIAN_POINT('Origin',(-19.2,9.487,-30.300000000001));
#882=CARTESIAN_POINT('',(-30.,9.487,-10.6));
#883=CARTESIAN_POINT('',(-30.,9.487,-10.6));
#884=CARTESIAN_POINT('Origin',(-19.2,9.487,-10.6));
#885=CARTESIAN_POINT('Origin',(-19.2,0.,-10.6));
#886=CARTESIAN_POINT('',(-30.,0.,-10.6));
#887=CARTESIAN_POINT('Origin',(-30.,0.,-50.0000064689244));
#888=CARTESIAN_POINT('Origin',(-19.2,39.,-49.));
#889=CARTESIAN_POINT('',(-8.4,39.,-49.));
#890=CARTESIAN_POINT('',(-30.,39.,-49.));
#891=CARTESIAN_POINT('Origin',(-19.2,39.,-49.));
#892=CARTESIAN_POINT('',(-8.4,37.,-49.));
#893=CARTESIAN_POINT('',(-8.4,37.,-49.));
#894=CARTESIAN_POINT('',(-30.,37.,-49.));
#895=CARTESIAN_POINT('Origin',(-19.2,37.,-49.));
#896=CARTESIAN_POINT('',(-30.,37.,-49.));
#897=CARTESIAN_POINT('Origin',(-19.2,39.,-9.6));
#898=CARTESIAN_POINT('',(-30.,39.,-9.6));
#899=CARTESIAN_POINT('',(-8.4,39.,-9.6));
#900=CARTESIAN_POINT('Origin',(-19.2,39.,-9.6));
#901=CARTESIAN_POINT('',(-30.,37.,-9.6));
#902=CARTESIAN_POINT('',(-30.,37.,-9.6));
#903=CARTESIAN_POINT('',(-8.4,37.,-9.6));
#904=CARTESIAN_POINT('Origin',(-19.2,37.,-9.6));
#905=CARTESIAN_POINT('',(-8.4,37.,-9.6));
#906=CARTESIAN_POINT('Origin',(-24.9,39.,-14.7));
#907=CARTESIAN_POINT('',(-24.9,39.,-14.7));
#908=CARTESIAN_POINT('',(-24.9,39.,-43.9));
#909=CARTESIAN_POINT('',(-24.9,39.,-22.));
#910=CARTESIAN_POINT('',(-24.9,38.,-14.7));
#911=CARTESIAN_POINT('',(-24.9,39.,-14.7));
#912=CARTESIAN_POINT('',(-24.9,38.,-43.9));
#913=CARTESIAN_POINT('',(-24.9,38.,-43.9));
#914=CARTESIAN_POINT('',(-24.9,39.,-43.9));
#915=CARTESIAN_POINT('Origin',(-13.5,39.,-14.7));
#916=CARTESIAN_POINT('',(-13.5,39.,-14.7));
#917=CARTESIAN_POINT('',(-16.35,39.,-14.7));
#918=CARTESIAN_POINT('',(-13.5,38.,-14.7));
#919=CARTESIAN_POINT('',(-13.5,39.,-14.7));
#920=CARTESIAN_POINT('',(-24.9,38.,-14.7));
#921=CARTESIAN_POINT('Origin',(-13.5,39.,-43.9));
#922=CARTESIAN_POINT('',(-13.5,39.,-43.9));
#923=CARTESIAN_POINT('',(-13.5,39.,-36.6));
#924=CARTESIAN_POINT('',(-13.5,38.,-43.9));
#925=CARTESIAN_POINT('',(-13.5,39.,-43.9));
#926=CARTESIAN_POINT('',(-13.5,38.,-14.7));
#927=CARTESIAN_POINT('Origin',(-24.9,39.,-43.9));
#928=CARTESIAN_POINT('',(-22.05,39.,-43.9));
#929=CARTESIAN_POINT('',(-13.5,38.,-43.9));
#930=CARTESIAN_POINT('Origin',(-19.2,38.,-29.3));
#931=CARTESIAN_POINT('Origin',(-30.,37.,-49.));
#932=CARTESIAN_POINT('',(-30.,37.,-9.6));
#933=CARTESIAN_POINT('',(-30.,39.,-9.6));
#934=CARTESIAN_POINT('Origin',(-8.4,37.,-9.6));
#935=CARTESIAN_POINT('',(-8.4,37.,-49.));
#936=CARTESIAN_POINT('',(-8.4,39.,-49.));
#937=CARTESIAN_POINT('Origin',(-19.2,39.,-29.3));
#938=CARTESIAN_POINT('Origin',(-19.2,37.,-29.3));
#939=UNCERTAINTY_MEASURE_WITH_UNIT(LENGTH_MEASURE(0.01),#943,
'DISTANCE_ACCURACY_VALUE',
'Maximum model space distance between geometric entities at asserted c
onnectivities');
#940=UNCERTAINTY_MEASURE_WITH_UNIT(LENGTH_MEASURE(0.01),#943,
'DISTANCE_ACCURACY_VALUE',
'Maximum model space distance between geometric entities at asserted c
onnectivities');
#941=(
GEOMETRIC_REPRESENTATION_CONTEXT(3)
GLOBAL_UNCERTAINTY_ASSIGNED_CONTEXT((#939))
GLOBAL_UNIT_ASSIGNED_CONTEXT((#943,#945,#946))
REPRESENTATION_CONTEXT('','3D')
);
#942=(
GEOMETRIC_REPRESENTATION_CONTEXT(3)
GLOBAL_UNCERTAINTY_ASSIGNED_CONTEXT((#940))
GLOBAL_UNIT_ASSIGNED_CONTEXT((#943,#945,#946))
REPRESENTATION_CONTEXT('','3D')
);
#943=(
LENGTH_UNIT()
NAMED_UNIT(*)
SI_UNIT(.MILLI.,.METRE.)
);
#944=(
LENGTH_UNIT()
NAMED_UNIT(*)
SI_UNIT($,.METRE.)
);
#945=(
NAMED_UNIT(*)
PLANE_ANGLE_UNIT()
SI_UNIT($,.RADIAN.)
);
#946=(
NAMED_UNIT(*)
SI_UNIT($,.STERADIAN.)
SOLID_ANGLE_UNIT()
);
#947=SHAPE_DEFINITION_REPRESENTATION(#948,#949);
#948=PRODUCT_DEFINITION_SHAPE('',$,#951);
#949=SHAPE_REPRESENTATION('',(#433),#941);
#950=PRODUCT_DEFINITION_CONTEXT('part definition',#955,'design');
#951=PRODUCT_DEFINITION('2026-09-23-10-13-01-815',
'new_casing_electrodes_v1',#952,#950);
#952=PRODUCT_DEFINITION_FORMATION('',$,#957);
#953=PRODUCT_RELATED_PRODUCT_CATEGORY('new_casing_electrodes_v1',
'new_casing_electrodes_v1',(#957));
#954=APPLICATION_PROTOCOL_DEFINITION('international standard',
'automotive_design',2009,#955);
#955=APPLICATION_CONTEXT(
'Core Data for Automotive Mechanical Design Process');
#956=PRODUCT_CONTEXT('part definition',#955,'mechanical');
#957=PRODUCT('2026-09-23-10-13-01-815','new_casing_electrodes_v1',$,(#956));
#958=PRESENTATION_STYLE_ASSIGNMENT((#959));
#959=SURFACE_STYLE_USAGE(.BOTH.,#960);
#960=SURFACE_SIDE_STYLE('',(#961));
#961=SURFACE_STYLE_FILL_AREA(#962);
#962=FILL_AREA_STYLE('Acero - Satinado',(#963));
#963=FILL_AREA_STYLE_COLOUR('Acero - Satinado',#964);
#964=COLOUR_RGB('Acero - Satinado',0.627450980392157,0.627450980392157,
0.627450980392157);
ENDSEC;
END-ISO-10303-21;
